<svg xmlns="http://www.w3.org/2000/svg" viewBox="-469.6 270.5 17.8 21"><style type="text/css"> .st0{fill-rule:evenodd;clip-rule:evenodd;fill:#0065A8;} .st1{fill-rule:evenodd;clip-rule:evenodd;fill:#ED7200;} .st2{fill-rule:evenodd;clip-rule:evenodd;fill:#FCC106;} .st3{fill-rule:evenodd;clip-rule:evenodd;fill:#4EAE3D;} .st4{fill-rule:evenodd;clip-rule:evenodd;fill:#6A6A6E;} </style><polygon class="st0" points="-456.8 270.5 -459.1 270.5 -463.3 279 -460.8 278.5 "/><polygon class="st1" points="-451.7 270.5 -454 270.5 -458.2 278.8 -456 279.1 "/><polygon class="st2" points="-464.3 270.5 -462.2 270.5 -461.5 272 -462.5 274.1 "/><polygon class="st3" points="-469.6 270.5 -467.2 270.5 -462.9 279 -465 279.8 "/><path class="st4" d="M-460.7 276.8c-4.1 0-7.3 3.3-7.3 7.3 0 4.1 3.3 7.3 7.3 7.3 4.1 0 7.4-3.3 7.4-7.3C-453.3 280.1-456.6 276.8-460.7 276.8zM-460.7 278.9c2.9 0 5.3 2.3 5.3 5.2 0 2.9-2.3 5.3-5.3 5.3 -2.9 0-5.2-2.3-5.2-5.3C-465.9 281.2-463.6 278.9-460.7 278.9"/><path class="st4" d="M-457 283.4c0 0.1 0 0.1-0.1 0.2l-1.6 1.6 0.4 2.2c0 0 0 0 0 0.1 0 0.1 0 0.1 0 0.2 0 0-0.1 0.1-0.1 0.1 -0.1 0-0.1 0-0.2-0.1l-2-1 -2 1c-0.1 0-0.1 0.1-0.2 0.1 -0.1 0-0.1 0-0.1-0.1 0 0 0-0.1 0-0.2 0 0 0 0 0-0.1l0.4-2.2 -1.6-1.6c-0.1-0.1-0.1-0.2-0.1-0.2 0-0.1 0.1-0.2 0.2-0.2l2.2-0.3 1-2c0.1-0.1 0.1-0.2 0.2-0.2 0.1 0 0.2 0.1 0.2 0.2l1 2 2.2 0.3C-457 283.2-457 283.3-457 283.4"/></svg>